<svg width="164" height="41" viewBox="0 0 164 41" fill="none" xmlns="http://www.w3.org/2000/svg">
<path fill-rule="evenodd" clip-rule="evenodd" d="M6.61685 10.0253C9.03942 8.33795 11.9683 7.33932 15.1501 7.33932C23.5025 7.33932 30.3004 14.2264 30.3004 22.7664C30.3004 31.3064 23.5025 38.2279 15.1501 38.2279C6.79766 38.2279 0 31.3064 0 22.7664V0.176758H6.61685V10.0253ZM6.61685 22.8008C6.61685 27.6219 10.4496 31.5129 15.1501 31.5129C19.8507 31.5129 23.6835 27.6219 23.6835 22.8008C23.6835 17.9798 19.8507 14.0887 15.1501 14.0887C10.4496 14.0887 6.61685 17.9798 6.61685 22.8008ZM71.0029 35.4914C68.5773 37.1886 65.6451 38.1932 62.4594 38.1932C54.0608 38.1932 47.291 31.2306 47.291 22.6395C47.291 14.0487 54.0608 7.08588 62.4232 7.12054C70.7857 7.12054 77.5914 14.0833 77.5914 22.6742V38.2279H71.0029V35.4914ZM71.0029 22.6395C71.0029 17.7899 67.1656 13.8755 62.4594 13.8755C57.7171 13.8755 53.9158 17.7899 53.9158 22.6395C53.9158 27.4893 57.7531 31.4037 62.4594 31.4037C67.1656 31.4037 71.0029 27.4893 71.0029 22.6395ZM102.726 27.0515C101.239 29.6812 98.4837 31.4115 95.3294 31.4115C90.6158 31.4115 86.7725 27.5013 86.7725 22.657C86.7725 17.8126 90.6158 13.9025 95.3294 13.9025C98.5199 13.9025 101.276 15.6672 102.762 18.297L108.491 14.906C105.88 10.2346 100.949 7.1204 95.3294 7.1204C86.9177 7.1204 80.1373 14.0755 80.1373 22.657C80.1373 31.2383 86.9539 38.1935 95.3294 38.1935C100.949 38.1935 105.844 35.0792 108.491 30.4427L102.726 27.0515ZM44.4627 7.01229H47.3665V13.1643H44.5788C41.7562 13.1643 39.468 15.4085 39.468 18.177V38.2279H32.6149V18.6327C32.6149 12.2149 37.9194 7.01229 44.4627 7.01229Z" fill="#DFDFDF"/>
<path fill-rule="evenodd" clip-rule="evenodd" d="M123.154 1.36523H129.724V40.1152H123.154V1.36523ZM113.223 1.3665H119.793V40.1165H113.223V1.3665ZM163.437 7.93913V1.36848H133.11V7.93913L163.437 7.93913ZM140.014 17.88H133.103L133.103 11.3093H140.014H146.582H146.585V40.1191H140.014V17.88ZM163.446 17.8808V11.3102H149.968V11.3137H149.961V40.1234H156.532V17.8808H163.446Z" fill="#DFDFDF"/>
</svg>
