<svg width="116" height="28" viewBox="0 0 116 28" fill="none" xmlns="http://www.w3.org/2000/svg">
<path fill-rule="evenodd" clip-rule="evenodd" d="M4.69604 7.1471C6.41537 5.92259 8.49399 5.19788 10.7522 5.19788C16.68 5.19788 21.5045 10.1959 21.5045 16.3933C21.5045 22.5909 16.68 27.6137 10.7522 27.6137C4.82436 27.6137 0 22.5909 0 16.3933V0H4.69604V7.1471ZM4.69604 16.4183C4.69604 19.917 7.41619 22.7407 10.7522 22.7407C14.0882 22.7407 16.8084 19.917 16.8084 16.4183C16.8084 12.9197 14.0882 10.0959 10.7522 10.0959C7.41619 10.0959 4.69604 12.9197 4.69604 16.4183ZM50.3914 25.6279C48.67 26.8596 46.589 27.5886 44.3281 27.5886C38.3675 27.5886 33.5629 22.5358 33.5629 16.3013C33.5629 10.0669 38.3675 5.01396 44.3024 5.03911C50.2373 5.03911 55.0674 10.092 55.0674 16.3264V27.6137H50.3914V25.6279ZM50.3914 16.3013C50.3914 12.7819 47.6681 9.94116 44.3281 9.94116C40.9624 9.94116 38.2646 12.7819 38.2646 16.3013C38.2646 19.8207 40.9879 22.6615 44.3281 22.6615C47.6681 22.6615 50.3914 19.8207 50.3914 16.3013ZM72.9056 19.5031C71.8506 21.4114 69.8948 22.6671 67.6562 22.6671C64.3109 22.6671 61.5833 19.8295 61.5833 16.3139C61.5833 12.7984 64.3109 9.96079 67.6562 9.96079C69.9206 9.96079 71.8763 11.2415 72.9313 13.1499L76.9971 10.689C75.1442 7.29901 71.6446 5.03901 67.6562 5.03901C61.6863 5.03901 56.8742 10.0863 56.8742 16.3139C56.8742 22.5414 61.7121 27.5888 67.6562 27.5888C71.6446 27.5888 75.1187 25.3288 76.9971 21.964L72.9056 19.5031ZM31.5556 4.96055H33.6165V9.42505H31.638C29.6348 9.42505 28.0108 11.0537 28.0108 13.0628V27.6137H23.1471V13.3935C23.1471 8.73611 26.9118 4.96055 31.5556 4.96055Z" fill="#092C58"/>
<path fill-rule="evenodd" clip-rule="evenodd" d="M87.4035 0.00650024H92.0668V27.5077H87.4035V0.00650024ZM80.3555 0.00711015H85.0187V27.5083H80.3555V0.00711015ZM115.992 4.67245V0.00920099L94.4693 0.00920005V4.67245L115.992 4.67245ZM99.3687 11.7273H94.4649V7.06403H99.3687H104.031H104.032V27.5106H99.3687V11.7273ZM115.999 11.7282V7.065L106.434 7.065V7.067H106.429V27.5136H111.092V11.7282H115.999Z" fill="#F25D5A"/>
</svg>
